HIERARCHY
ROOT mixamorig:Hips
{
	OFFSET -0.000008 104.274872 1.554316
	CHANNELS 6 Xposition Yposition Zposition Xrotation Yrotation Zrotation
	JOINT mixamorig:Spine
	{
		OFFSET -0.000005 10.181595 0.131519
		CHANNELS 6 Xposition Yposition Zposition Xrotation Yrotation Zrotation
		JOINT mixamorig:Spine1
		{
			OFFSET -0.000000 9.893959 -1.470707
			CHANNELS 6 Xposition Yposition Zposition Xrotation Yrotation Zrotation
			JOINT mixamorig:Spine2
			{
				OFFSET -0.000000 9.220757 -1.370641
				CHANNELS 6 Xposition Yposition Zposition Xrotation Yrotation Zrotation
				JOINT mixamorig:Neck
				{
					OFFSET 0.000001 16.740417 -2.049036
					CHANNELS 6 Xposition Yposition Zposition Xrotation Yrotation Zrotation
					JOINT mixamorig:Head
					{
						OFFSET 0.000000 9.617874 1.685006
						CHANNELS 6 Xposition Yposition Zposition Xrotation Yrotation Zrotation
						JOINT mixamorig:HeadTop_End
						{
							OFFSET 0.000002 22.037354 7.501101
							CHANNELS 6 Xposition Yposition Zposition Xrotation Yrotation Zrotation
							End Site
							{
								OFFSET 0.000168 2310.654297 -282.823242
							}
						}
					}
				}
				JOINT mixamorig:RightShoulder
				{
					OFFSET -4.569970 11.014908 -2.160885
					CHANNELS 6 Xposition Yposition Zposition Xrotation Yrotation Zrotation
					JOINT mixamorig:RightArm
					{
						OFFSET -10.592851 -0.524811 -2.232101
						CHANNELS 6 Xposition Yposition Zposition Xrotation Yrotation Zrotation
						JOINT mixamorig:RightForeArm
						{
							OFFSET -27.841511 0.000031 -0.000004
							CHANNELS 6 Xposition Yposition Zposition Xrotation Yrotation Zrotation
							JOINT mixamorig:RightHand
							{
								OFFSET -28.328831 -0.000015 0.000015
								CHANNELS 6 Xposition Yposition Zposition Xrotation Yrotation Zrotation
								JOINT mixamorig:RightHandThumb1
								{
									OFFSET -2.464806 -1.573990 2.681852
									CHANNELS 6 Xposition Yposition Zposition Xrotation Yrotation Zrotation
									JOINT mixamorig:RightHandThumb2
									{
										OFFSET -3.215179 -1.872803 1.924282
										CHANNELS 6 Xposition Yposition Zposition Xrotation Yrotation Zrotation
										JOINT mixamorig:RightHandThumb3
										{
											OFFSET -2.654831 -1.527969 1.512609
											CHANNELS 6 Xposition Yposition Zposition Xrotation Yrotation Zrotation
											JOINT mixamorig:RightHandThumb4
											{
												OFFSET -2.018814 -1.152008 1.108052
												CHANNELS 6 Xposition Yposition Zposition Xrotation Yrotation Zrotation
												End Site
												{
													OFFSET -188.809540 -114.533607 132.431396
												}
											}
										}
									}
								}
								JOINT mixamorig:RightHandIndex1
								{
									OFFSET -9.108284 -0.517868 2.259835
									CHANNELS 6 Xposition Yposition Zposition Xrotation Yrotation Zrotation
									JOINT mixamorig:RightHandIndex2
									{
										OFFSET -3.699989 0.000000 0.001215
										CHANNELS 6 Xposition Yposition Zposition Xrotation Yrotation Zrotation
										JOINT mixamorig:RightHandIndex3
										{
											OFFSET -2.850006 0.000031 -0.000522
											CHANNELS 6 Xposition Yposition Zposition Xrotation Yrotation Zrotation
											JOINT mixamorig:RightHandIndex4
											{
												OFFSET -2.772186 -0.000015 -0.000020
												CHANNELS 6 Xposition Yposition Zposition Xrotation Yrotation Zrotation
												End Site
												{
													OFFSET -277.218445 0.000000 -0.050231
												}
											}
										}
									}
								}
								JOINT mixamorig:RightHandMiddle1
								{
									OFFSET -9.532516 -0.000031 -0.000023
									CHANNELS 6 Xposition Yposition Zposition Xrotation Yrotation Zrotation
									JOINT mixamorig:RightHandMiddle2
									{
										OFFSET -3.700005 -0.000015 0.003713
										CHANNELS 6 Xposition Yposition Zposition Xrotation Yrotation Zrotation
										JOINT mixamorig:RightHandMiddle3
										{
											OFFSET -2.949974 0.000015 -0.002054
											CHANNELS 6 Xposition Yposition Zposition Xrotation Yrotation Zrotation
											JOINT mixamorig:RightHandMiddle4
											{
												OFFSET -2.946640 0.000000 -0.000156
												CHANNELS 6 Xposition Yposition Zposition Xrotation Yrotation Zrotation
												End Site
												{
													OFFSET -294.664337 0.000000 -0.113670
												}
											}
										}
									}
								}
								JOINT mixamorig:RightHandRing1
								{
									OFFSET -9.103600 -0.043076 -1.865134
									CHANNELS 6 Xposition Yposition Zposition Xrotation Yrotation Zrotation
									JOINT mixamorig:RightHandRing2
									{
										OFFSET -3.379288 0.000000 -0.001055
										CHANNELS 6 Xposition Yposition Zposition Xrotation Yrotation Zrotation
										JOINT mixamorig:RightHandRing3
										{
											OFFSET -2.889687 -0.000015 0.000379
											CHANNELS 6 Xposition Yposition Zposition Xrotation Yrotation Zrotation
											JOINT mixamorig:RightHandRing4
											{
												OFFSET -2.638809 -0.000015 0.000941
												CHANNELS 6 Xposition Yposition Zposition Xrotation Yrotation Zrotation
												End Site
												{
													OFFSET -263.880371 0.000000 0.516020
												}
											}
										}
									}
								}
								JOINT mixamorig:RightHandPinky1
								{
									OFFSET -8.076683 -0.486710 -3.806280
									CHANNELS 6 Xposition Yposition Zposition Xrotation Yrotation Zrotation
									JOINT mixamorig:RightHandPinky2
									{
										OFFSET -3.600014 -0.000015 -0.003747
										CHANNELS 6 Xposition Yposition Zposition Xrotation Yrotation Zrotation
										JOINT mixamorig:RightHandPinky3
										{
											OFFSET -2.099983 0.000000 -0.005739
											CHANNELS 6 Xposition Yposition Zposition Xrotation Yrotation Zrotation
											JOINT mixamorig:RightHandPinky4
											{
												OFFSET -2.115768 -0.000031 -0.003680
												CHANNELS 6 Xposition Yposition Zposition Xrotation Yrotation Zrotation
												End Site
												{
													OFFSET -211.577087 0.000000 -0.350686
												}
											}
										}
									}
								}
							}
						}
					}
				}
				JOINT mixamorig:LeftShoulder
				{
					OFFSET 4.570447 11.014725 -2.160855
					CHANNELS 6 Xposition Yposition Zposition Xrotation Yrotation Zrotation
					JOINT mixamorig:LeftArm
					{
						OFFSET 10.592371 -0.524597 -2.232119
						CHANNELS 6 Xposition Yposition Zposition Xrotation Yrotation Zrotation
						JOINT mixamorig:LeftForeArm
						{
							OFFSET 27.841532 -0.000031 0.000026
							CHANNELS 6 Xposition Yposition Zposition Xrotation Yrotation Zrotation
							JOINT mixamorig:LeftHand
							{
								OFFSET 28.328846 -0.000061 0.000022
								CHANNELS 6 Xposition Yposition Zposition Xrotation Yrotation Zrotation
								JOINT mixamorig:LeftHandThumb1
								{
									OFFSET 2.466141 -1.576172 2.681732
									CHANNELS 6 Xposition Yposition Zposition Xrotation Yrotation Zrotation
									JOINT mixamorig:LeftHandThumb2
									{
										OFFSET 3.217812 -1.872070 1.916482
										CHANNELS 6 Xposition Yposition Zposition Xrotation Yrotation Zrotation
										JOINT mixamorig:LeftHandThumb3
										{
											OFFSET 2.656029 -1.528778 1.514513
											CHANNELS 6 Xposition Yposition Zposition Xrotation Yrotation Zrotation
											JOINT mixamorig:LeftHandThumb4
											{
												OFFSET 2.020889 -1.154053 1.115139
												CHANNELS 6 Xposition Yposition Zposition Xrotation Yrotation Zrotation
												End Site
												{
													OFFSET 190.885437 -115.081749 130.048782
												}
											}
										}
									}
								}
								JOINT mixamorig:LeftHandIndex1
								{
									OFFSET 9.109314 -0.518021 2.259871
									CHANNELS 6 Xposition Yposition Zposition Xrotation Yrotation Zrotation
									JOINT mixamorig:LeftHandIndex2
									{
										OFFSET 3.699989 0.000000 -0.000322
										CHANNELS 6 Xposition Yposition Zposition Xrotation Yrotation Zrotation
										JOINT mixamorig:LeftHandIndex3
										{
											OFFSET 2.850006 0.000000 0.000352
											CHANNELS 6 Xposition Yposition Zposition Xrotation Yrotation Zrotation
											JOINT mixamorig:LeftHandIndex4
											{
												OFFSET 2.774864 -0.000031 -0.000027
												CHANNELS 6 Xposition Yposition Zposition Xrotation Yrotation Zrotation
												End Site
												{
													OFFSET 277.486267 0.000000 -0.009857
												}
											}
										}
									}
								}
								JOINT mixamorig:LeftHandMiddle1
								{
									OFFSET 9.533394 0.000061 0.000044
									CHANNELS 6 Xposition Yposition Zposition Xrotation Yrotation Zrotation
									JOINT mixamorig:LeftHandMiddle2
									{
										OFFSET 3.699989 -0.000015 -0.000231
										CHANNELS 6 Xposition Yposition Zposition Xrotation Yrotation Zrotation
										JOINT mixamorig:LeftHandMiddle3
										{
											OFFSET 2.949997 -0.000015 -0.000059
											CHANNELS 6 Xposition Yposition Zposition Xrotation Yrotation Zrotation
											JOINT mixamorig:LeftHandMiddle4
											{
												OFFSET 2.952896 0.000031 0.000063
												CHANNELS 6 Xposition Yposition Zposition Xrotation Yrotation Zrotation
												End Site
												{
													OFFSET 295.289337 0.000000 0.022810
												}
											}
										}
									}
								}
								JOINT mixamorig:LeftHandRing1
								{
									OFFSET 9.104523 -0.042999 -1.865074
									CHANNELS 6 Xposition Yposition Zposition Xrotation Yrotation Zrotation
									JOINT mixamorig:LeftHandRing2
									{
										OFFSET 3.150009 -0.000031 0.000043
										CHANNELS 6 Xposition Yposition Zposition Xrotation Yrotation Zrotation
										JOINT mixamorig:LeftHandRing3
										{
											OFFSET 2.949982 -0.000015 0.000040
											CHANNELS 6 Xposition Yposition Zposition Xrotation Yrotation Zrotation
											JOINT mixamorig:LeftHandRing4
											{
												OFFSET 2.644348 0.000000 0.000057
												CHANNELS 6 Xposition Yposition Zposition Xrotation Yrotation Zrotation
												End Site
												{
													OFFSET 264.434631 0.000000 0.012105
												}
											}
										}
									}
								}
								JOINT mixamorig:LeftHandPinky1
								{
									OFFSET 8.077789 -0.486847 -3.806259
									CHANNELS 6 Xposition Yposition Zposition Xrotation Yrotation Zrotation
									JOINT mixamorig:LeftHandPinky2
									{
										OFFSET 3.599953 0.000031 0.014727
										CHANNELS 6 Xposition Yposition Zposition Xrotation Yrotation Zrotation
										JOINT mixamorig:LeftHandPinky3
										{
											OFFSET 2.100021 0.000015 0.007705
											CHANNELS 6 Xposition Yposition Zposition Xrotation Yrotation Zrotation
											JOINT mixamorig:LeftHandPinky4
											{
												OFFSET 2.125504 0.000031 0.007517
												CHANNELS 6 Xposition Yposition Zposition Xrotation Yrotation Zrotation
												End Site
												{
													OFFSET 212.550781 0.000000 0.625752
												}
											}
										}
									}
								}
							}
						}
					}
				}
			}
		}
	}
	JOINT mixamorig:RightUpLeg
	{
		OFFSET -8.207787 -6.751648 -1.599560
		CHANNELS 6 Xposition Yposition Zposition Xrotation Yrotation Zrotation
		JOINT mixamorig:RightLeg
		{
			OFFSET -0.000002 -44.370117 0.345942
			CHANNELS 6 Xposition Yposition Zposition Xrotation Yrotation Zrotation
			JOINT mixamorig:RightFoot
			{
				OFFSET 0.000003 -44.423679 -3.043532
				CHANNELS 6 Xposition Yposition Zposition Xrotation Yrotation Zrotation
				JOINT mixamorig:RightToeBase
				{
					OFFSET -0.000002 -8.728671 10.710558
					CHANNELS 6 Xposition Yposition Zposition Xrotation Yrotation Zrotation
					JOINT mixamorig:RightToe_End
					{
						OFFSET -0.000001 -0.000679 9.278119
						CHANNELS 6 Xposition Yposition Zposition Xrotation Yrotation Zrotation
						End Site
						{
							OFFSET 0.000000 -0.067690 927.812134
						}
					}
				}
			}
		}
	}
	JOINT mixamorig:LeftUpLeg
	{
		OFFSET 8.207793 -6.751686 -1.599556
		CHANNELS 6 Xposition Yposition Zposition Xrotation Yrotation Zrotation
		JOINT mixamorig:LeftLeg
		{
			OFFSET -0.000004 -44.370014 0.346954
			CHANNELS 6 Xposition Yposition Zposition Xrotation Yrotation Zrotation
			JOINT mixamorig:LeftFoot
			{
				OFFSET -0.000001 -44.423672 -3.044401
				CHANNELS 6 Xposition Yposition Zposition Xrotation Yrotation Zrotation
				JOINT mixamorig:LeftToeBase
				{
					OFFSET -0.000002 -8.728669 10.710558
					CHANNELS 6 Xposition Yposition Zposition Xrotation Yrotation Zrotation
					JOINT mixamorig:LeftToe_End
					{
						OFFSET -0.000003 -0.000679 9.278133
						CHANNELS 6 Xposition Yposition Zposition Xrotation Yrotation Zrotation
						End Site
						{
							OFFSET 0.000000 -0.068021 927.813477
						}
					}
				}
			}
		}
	}
}
MOTION
Frames: 3
Frame Time: 0.033333
0.000006 104.270477 1.554256 0.000010 0.000003 -0.000113 -0.000005 10.181587 0.131522 0.000001 -0.000003 0.000084 -0.000000 9.893967 -1.470711 0.000001 0.000000 -0.000000 -0.000000 9.220802 -1.370642 0.000000 -0.000000 -0.000000 0.000001 16.740433 -2.049030 0.000000 -0.000000 -0.000000 0.000000 9.617859 1.685014 0.000000 0.000000 0.000000 0.000002 22.037384 7.501101 0.000000 -0.000000 0.000000 -4.569968 11.014880 -2.160881 0.000008 0.000001 -0.000038 -10.592767 -0.524853 -2.231732 80.141683 68.016950 -59.157088 -27.841496 -0.000019 0.000576 48.850906 105.459815 -61.658392 -28.328821 0.000007 0.000030 -0.000318 -0.000044 0.000007 -2.464757 -1.574165 2.681991 125.340255 -169.723029 164.852025 -3.214979 -1.873036 1.924496 275.366234 -34.554863 326.747398 -2.654516 -1.528260 1.512963 232.225558 -51.618673 -72.943511 -2.018831 -1.152003 1.108073 -0.000001 -0.000006 0.000004 -9.108304 -0.517981 2.260300 67.680638 176.413664 -174.600959 -3.699974 0.000127 0.001208 376.238102 -5.597699 -359.199129 -2.849980 0.000343 -0.000463 420.214493 -5.966684 -356.537760 -2.772172 -0.000015 -0.000018 -0.000002 -0.000000 0.000000 -9.532515 -0.000178 0.000395 73.773495 176.765391 -175.547063 -3.699949 0.000027 0.003695 366.147781 -10.362929 -359.444989 -2.949949 0.000310 -0.002026 418.362938 -8.878831 4.967987 -2.946622 0.000012 -0.000150 0.000002 -0.000000 -0.000001 -9.103624 -0.043204 -1.864724 80.821567 176.173528 -175.545301 -3.379176 0.000030 -0.001121 364.077715 -17.164207 -359.382616 -2.889643 0.000304 0.000399 418.067136 -12.481306 6.930552 -2.638822 -0.000001 0.000961 0.000001 -0.000003 0.000002 -8.076677 -0.486856 -3.805912 85.059638 174.444315 -174.062986 -3.599910 -0.000051 -0.003783 360.561561 -16.149665 -359.963264 -2.099895 0.000283 -0.005708 419.111773 -14.398609 -351.727449 -2.115771 -0.000040 -0.003689 -0.000003 -0.000003 -0.000002 4.570446 11.014691 -2.160851 -0.000018 0.000010 -0.000021 10.592534 -0.524534 -2.232401 72.725662 -66.275026 51.342744 27.841755 -0.000046 -0.000121 231.539807 -80.329821 239.538532 28.328835 -0.000015 0.000021 0.000017 -0.000090 -0.000001 2.466172 -1.576118 2.681904 134.081490 194.468122 -167.160574 3.217852 -1.871951 1.916558 -59.774025 9.749325 17.108096 2.656053 -1.528738 1.514604 -68.178498 19.099893 21.911192 2.020891 -1.154068 1.115155 0.000002 0.000001 0.000002 9.109250 -0.517848 2.260104 79.436159 -160.844439 157.044272 3.699945 0.000200 -0.000085 -106.555117 -10.901918 -14.593901 2.849973 0.000242 0.000584 -103.822031 -8.074856 -10.290474 2.774879 -0.000046 -0.000013 0.000001 -0.000001 0.000000 9.533314 0.000298 0.000286 61.294398 -162.641585 151.112922 3.699959 0.000237 0.000040 -112.242500 -8.838437 -13.129195 2.949969 0.000214 0.000197 -107.158442 -9.139500 -12.367945 2.952874 -0.000031 0.000063 -0.000000 0.000001 -0.000000 9.104445 -0.042756 -1.864825 62.297438 -164.305596 154.307046 3.149966 0.000231 0.000294 -103.511380 -8.943825 -11.335110 2.949953 0.000219 0.000301 -99.312091 -7.182198 -8.453029 2.644317 0.000016 0.000054 0.000001 -0.000000 0.000000 8.077702 -0.486580 -3.806020 56.322522 -166.247952 154.033197 3.599909 0.000276 0.014992 -111.799753 -9.626301 -14.674332 2.099970 0.000242 0.007987 76.292810 -172.103815 169.521757 2.125504 -0.000015 0.007513 0.000000 -0.000001 -0.000000 -8.207786 -6.751667 -1.599560 -0.077001 -0.000003 0.000080 -0.000002 -44.370110 0.345938 0.153719 -0.000000 -0.000000 0.000000 -44.423679 -3.043532 -0.076700 0.000000 -0.000002 -0.000006 -8.728667 10.710559 -0.000009 -0.000000 -0.000000 -0.000001 -0.000679 9.278123 0.000000 -0.000000 -0.000000 8.207792 -6.751710 -1.599556 -0.074518 -0.000003 0.000081 -0.000002 -44.370014 0.346960 0.148822 0.000002 0.000000 -0.000001 -44.423664 -3.044403 -0.074314 0.000000 -0.000002 -0.000004 -8.728671 10.710558 0.000007 -0.000000 -0.000000 0.000000 -0.000680 9.278137 -0.000000 0.000000 -0.000001 
0.000006 104.270477 1.554256 0.000010 0.000003 -0.000113 -0.000005 10.181587 0.131522 0.000001 -0.000003 0.000084 -0.000000 9.893967 -1.470711 0.000001 0.000000 -0.000000 -0.000000 9.220802 -1.370642 0.000000 -0.000000 -0.000000 0.000001 16.740433 -2.049030 0.000000 -0.000000 -0.000000 0.000000 9.617859 1.685014 0.000000 0.000000 0.000000 0.000002 22.037384 7.501101 0.000000 -0.000000 0.000000 -4.569968 11.014880 -2.160881 0.000008 0.000001 -0.000038 -10.592766 -0.524841 -2.231736 79.964529 67.475985 -58.503091 -27.841497 -0.000016 0.000581 48.071817 105.268610 -60.573430 -28.328835 0.000006 0.000019 -0.000321 -0.000044 0.000006 -2.464773 -1.574174 2.681987 126.289364 -171.490218 165.235527 -3.215020 -1.873038 1.924456 282.475997 -28.596643 332.163055 -2.654531 -1.528263 1.512969 241.227856 -47.487293 -62.981885 -2.018830 -1.151999 1.108046 -0.000003 -0.000000 0.000003 -9.108308 -0.517968 2.260340 64.643396 172.513530 -168.142551 -3.700024 0.000120 0.001222 377.056714 3.433610 -360.511537 -2.850011 0.000351 -0.000449 422.399662 -0.976555 -359.408106 -2.772162 -0.000000 -0.000026 -0.000001 0.000001 -0.000001 -9.532528 -0.000182 0.000426 72.769177 174.004356 -171.731774 -3.699977 0.000044 0.003685 369.852613 -5.706724 -359.504876 -2.949951 0.000299 -0.001997 420.301428 -6.422141 3.735989 -2.946624 0.000000 -0.000141 0.000002 0.000001 -0.000000 -9.103629 -0.043231 -1.864711 81.404530 174.272195 -173.380404 -3.379177 0.000038 -0.001094 370.530113 -16.189527 -358.497396 -2.889637 0.000318 0.000433 420.229465 -12.590646 7.305086 -2.638817 -0.000016 0.000947 0.000002 -0.000003 0.000000 -8.076691 -0.486867 -3.805902 88.682008 172.497534 -172.430352 -3.599923 -0.000018 -0.003784 369.158228 -11.645638 -359.071405 -2.099914 0.000307 -0.005676 424.073987 -12.280754 -352.203212 -2.115771 -0.000042 -0.003680 0.000002 -0.000002 -0.000002 4.570446 11.014691 -2.160851 -0.000018 0.000010 -0.000021 10.592538 -0.524532 -2.232400 73.639220 -66.134427 51.970745 27.841761 -0.000040 -0.000127 234.233387 -80.657280 242.199218 28.328825 -0.000016 0.000024 0.000019 -0.000090 -0.000000 2.466175 -1.576099 2.681901 133.797245 198.092520 -167.034503 3.217860 -1.871940 1.916586 -60.470499 9.369575 17.303372 2.656059 -1.528750 1.514594 -68.832556 20.041151 22.362837 2.020898 -1.154069 1.115148 0.000004 -0.000000 0.000003 9.109256 -0.517827 2.260112 78.305899 -161.704169 157.632911 3.699955 0.000231 -0.000094 -109.481143 -8.552734 -12.091719 2.849980 0.000242 0.000574 -106.407688 -5.675191 -7.581067 2.774888 -0.000031 -0.000021 0.000001 0.000000 -0.000000 9.533298 0.000300 0.000286 61.717234 -161.782729 149.966202 3.699972 0.000237 0.000023 -112.022418 -7.500494 -11.102854 2.949971 0.000213 0.000186 -105.400529 -7.214383 -9.464072 2.952872 -0.000015 0.000062 -0.000000 -0.000000 0.000000 9.104435 -0.042765 -1.864824 63.440334 -163.457833 153.528979 3.149982 0.000241 0.000305 -102.508039 -8.075210 -10.055365 2.949949 0.000209 0.000265 -96.183571 -5.748112 -6.404699 2.644331 0.000031 0.000057 0.000000 -0.000001 0.000001 8.077700 -0.486602 -3.806000 61.168162 -164.933181 154.262350 3.599900 0.000274 0.014995 -107.278564 -9.987382 -13.992606 2.099970 0.000225 0.007944 82.301266 -172.841953 171.413105 2.125511 0.000000 0.007514 0.000000 -0.000000 0.000000 -8.207786 -6.751667 -1.599560 -0.077001 -0.000003 0.000080 -0.000002 -44.370110 0.345938 0.153719 -0.000000 -0.000000 0.000000 -44.423679 -3.043532 -0.076700 0.000000 -0.000002 -0.000006 -8.728667 10.710559 -0.000009 -0.000000 -0.000000 -0.000001 -0.000679 9.278123 0.000000 -0.000000 -0.000000 8.207792 -6.751710 -1.599556 -0.074518 -0.000003 0.000081 -0.000002 -44.370014 0.346960 0.148822 0.000002 0.000000 -0.000001 -44.423664 -3.044403 -0.074314 0.000000 -0.000002 -0.000004 -8.728671 10.710558 0.000007 -0.000000 -0.000000 0.000000 -0.000680 9.278137 -0.000000 0.000000 -0.000001 
0.000006 104.270477 1.554256 0.000010 0.000003 -0.000113 -0.000005 10.181587 0.131522 0.000001 -0.000003 0.000084 -0.000000 9.893967 -1.470711 0.000001 0.000000 -0.000000 -0.000000 9.220802 -1.370642 0.000000 -0.000000 -0.000000 0.000001 16.740433 -2.049030 0.000000 -0.000000 -0.000000 0.000000 9.617859 1.685014 0.000000 0.000000 0.000000 0.000002 22.037384 7.501101 0.000000 -0.000000 0.000000 -4.569968 11.014880 -2.160881 0.000008 0.000001 -0.000038 -10.592770 -0.524854 -2.231748 79.358616 66.398666 -56.992017 -27.841492 0.000005 0.000579 52.962427 104.562191 -65.572780 -28.328831 0.000005 0.000024 -0.000323 -0.000044 0.000007 -2.464849 -1.574117 2.681997 132.688405 -189.627648 167.025473 -3.215091 -1.873007 1.924435 291.468433 -16.524485 338.713917 -2.654671 -1.528281 1.512849 272.705766 -32.675926 -34.914868 -2.018823 -1.152010 1.108076 -0.000004 0.000000 0.000004 -9.108319 -0.518013 2.260260 76.087057 169.922525 -167.104048 -3.700002 0.000042 0.001211 365.417661 2.367180 -360.110686 -2.849959 0.000328 -0.000475 423.890009 -9.024671 -354.365295 -2.772164 -0.000000 -0.000029 -0.000000 -0.000000 0.000000 -9.532535 -0.000195 0.000408 79.060041 171.077852 -169.083177 -3.699954 0.000028 0.003698 363.295030 -10.516505 -359.701749 -2.949903 0.000317 -0.002019 423.845859 -14.249960 8.908417 -2.946624 0.000003 -0.000148 -0.000000 0.000001 -0.000000 -9.103640 -0.043222 -1.864708 81.312453 172.387732 -171.176480 -3.379159 0.000005 -0.001095 360.987573 -21.801590 -359.807044 -2.889569 0.000322 0.000409 422.369172 -22.981433 14.016450 -2.638802 -0.000028 0.000927 -0.000004 0.000002 0.000000 -8.076691 -0.486867 -3.805878 83.096505 172.206076 -171.326075 -3.599904 -0.000063 -0.003783 355.827803 -16.243211 -360.651583 -2.099867 0.000299 -0.005695 421.631156 -18.892524 -348.593895 -2.115761 -0.000041 -0.003681 0.000003 0.000000 -0.000003 4.570446 11.014691 -2.160851 -0.000018 0.000010 -0.000021 10.592531 -0.524528 -2.232400 73.484175 -64.802827 50.701638 27.841763 -0.000066 -0.000123 233.500863 -80.420949 241.610456 28.328827 -0.000014 0.000025 0.000020 -0.000089 0.000002 2.466165 -1.576133 2.681874 136.602363 188.095541 -167.800413 3.217849 -1.871945 1.916577 -65.870092 15.223385 20.017273 2.656054 -1.528759 1.514627 -76.994414 26.488804 27.539603 2.020891 -1.154098 1.115157 0.000002 0.000006 0.000003 9.109277 -0.517793 2.260105 70.526225 -167.840342 162.877376 3.699983 -0.000002 -0.000164 -42.133104 -10.214585 -3.947468 2.849966 0.000118 0.000170 53.690140 17.893706 -9.111842 2.774886 -0.000031 -0.000030 0.000001 -0.000000 0.000000 9.533371 0.000289 0.000270 72.068898 -173.119423 170.560246 3.700030 0.000022 -0.000102 -56.514686 21.773542 11.805633 2.949962 0.000063 -0.000203 40.052909 25.144387 -9.294274 2.952868 -0.000015 0.000066 -0.000002 0.000000 -0.000001 9.104521 -0.042793 -1.864840 75.366862 -176.984354 176.094544 3.150006 0.000006 0.000080 -38.276486 31.218322 11.074310 2.949902 0.000060 -0.000141 37.789364 26.916491 -9.365063 2.644321 0.000022 0.000063 0.000003 -0.000003 -0.000001 8.077783 -0.486647 -3.806016 77.485832 -179.345482 178.607808 3.599955 0.000021 0.014815 -43.372897 27.050903 10.655875 2.099946 0.000060 0.007561 210.214754 -210.954928 171.430713 2.125497 -0.000015 0.007519 0.000000 0.000000 0.000003 -8.207786 -6.751667 -1.599560 -0.077001 -0.000003 0.000080 -0.000002 -44.370110 0.345938 0.153719 -0.000000 -0.000000 0.000000 -44.423679 -3.043532 -0.076700 0.000000 -0.000002 -0.000006 -8.728667 10.710559 -0.000009 -0.000000 -0.000000 -0.000001 -0.000679 9.278123 0.000000 -0.000000 -0.000000 8.207792 -6.751710 -1.599556 -0.074518 -0.000003 0.000081 -0.000002 -44.370014 0.346960 0.148822 0.000002 0.000000 -0.000001 -44.423664 -3.044403 -0.074314 0.000000 -0.000002 -0.000004 -8.728671 10.710558 0.000007 -0.000000 -0.000000 0.000000 -0.000680 9.278137 -0.000000 0.000000 -0.000001 
